<svg id="icon_Twitter" xmlns="http://www.w3.org/2000/svg" viewBox="0 0 74.67 60.71"><defs><style>.cls-1{fill:#fff;}</style></defs><path class="cls-1" d="M23.45,67.61c28.18,0,43.6-23.36,43.6-43.59,0-.66,0-1.31,0-2a31.1,31.1,0,0,0,7.65-8,31,31,0,0,1-8.82,2.42A15.43,15.43,0,0,0,72.61,8a30.67,30.67,0,0,1-9.74,3.7A15.33,15.33,0,0,0,36.36,22.23a16.81,16.81,0,0,0,.39,3.49,43.48,43.48,0,0,1-31.58-16A15.39,15.39,0,0,0,9.92,30.18,15.44,15.44,0,0,1,3,28.26v.21a15.35,15.35,0,0,0,12.28,15,15.34,15.34,0,0,1-6.9.27A15.32,15.32,0,0,0,22.68,54.41,30.74,30.74,0,0,1,3.65,61,29.44,29.44,0,0,1,0,60.77a43.59,43.59,0,0,0,23.45,6.84" transform="translate(0 -6.9)"/></svg>