<?xml version="1.0" encoding="utf-8"?>
<!-- Generator: Adobe Illustrator 24.1.1, SVG Export Plug-In . SVG Version: 6.00 Build 0)  -->
<svg version="1.1" id="iconAbout" xmlns="http://www.w3.org/2000/svg" xmlns:xlink="http://www.w3.org/1999/xlink" x="0px" y="0px"
	 viewBox="0 0 87 94.6" enable-background="new 0 0 87 94.6" xml:space="preserve">
<path id="chin" fill="#FFFFFF" d="M44.8,66.5c-0.4-0.5-1-1.2-1.4-1.5c-0.4,0.4-0.9,1-1.3,1.5c-1.9,2.2-4.8,5.6-9.9,5.6H8.8
	C16,85.3,28.8,94.1,43.4,94.1S70.8,85.3,78.1,72H54.7C49.6,72,46.7,68.7,44.8,66.5z"/>
<path id="head" fill="#FFFFFF" d="M43.4-0.5c-10.8,0-20.6,4.9-28,12.8h56C64.1,4.4,54.2-0.5,43.4-0.5z"/>
<path id="goggles" fill="#FFFFFF" d="M80.1,17.3H6.8c-3.8,0-6.8,3.1-6.8,6.8v36c0,1.9,0.8,3.6,2,4.8c2,2,4.4,2,4.8,2
	c7.4,0,18,0,25.4,0c5.4,0,6.5-7.2,11.2-7.2c4.7,0,5.9,7.2,11.3,7.2c4.7,0,18.7,0,25.3,0c3.8,0,6.8-3.1,6.8-6.8v-36
	C86.9,20.4,83.8,17.3,80.1,17.3z M82.6,60.1c0,1.4-1.2,2.5-2.5,2.5H54.7c-0.7,0-1.5-0.7-2.8-2.3c-1.8-2.1-4.3-4.9-8.5-4.9
	c-4.2,0-6.8,3-8.4,4.9c-1.3,1.6-2,2.3-2.8,2.3H6.8c-0.2,0-1.1,0-1.8-0.8c-0.5-0.5-0.8-1.1-0.8-1.8v-36c0-1.4,1.2-2.5,2.5-2.5h73.3
	c1.4,0,2.5,1.2,2.5,2.5V60.1z"/>
</svg>
