<?xml version="1.0" encoding="utf-8"?>
<!-- Generator: Adobe Illustrator 24.1.1, SVG Export Plug-In . SVG Version: 6.00 Build 0)  -->
<svg version="1.1" id="icon_x5F_Youtube" xmlns="http://www.w3.org/2000/svg" xmlns:xlink="http://www.w3.org/1999/xlink" x="0px"
	 y="0px" viewBox="0 0 88.4 61.9" enable-background="new 0 0 88.4 61.9" xml:space="preserve">
<path id="Youtube_11_" fill="#FFFFFF" d="M86.6,9.7c-1-3.8-4-6.8-7.8-7.8C71.8,0,44.2,0,44.2,0S16.6,0,9.7,1.8c-3.8,1-6.8,4-7.8,7.8
	C0,16.6,0,30.9,0,30.9s0,14.4,1.8,21.3c1,3.8,4,6.8,7.8,7.8c6.9,1.8,34.5,1.8,34.5,1.8s27.6,0,34.5-1.8c3.8-1,6.8-4,7.8-7.8
	c1.8-6.9,1.8-21.3,1.8-21.3S88.4,16.6,86.6,9.7z M35.4,44.2V17.7l23,13.3L35.4,44.2z"/>
</svg>
