<?xml version="1.0" encoding="utf-8"?>
<!-- Generator: Adobe Illustrator 24.1.1, SVG Export Plug-In . SVG Version: 6.00 Build 0)  -->
<svg version="1.1" id="icon_x5F_Blog" xmlns="http://www.w3.org/2000/svg" xmlns:xlink="http://www.w3.org/1999/xlink" x="0px"
	 y="0px" viewBox="0 0 74.7 74.5" enable-background="new 0 0 74.7 74.5" xml:space="preserve">
<path fill="#FFFFFF" d="M74.7,74.5c-4.1,0-8.3,0-12.4,0C62,57.5,56.1,42.7,44,30.7C31.9,18.6,17.1,12.7,0,12.4C0,8.3,0,4.2,0,0
	c18.5,0.2,34.8,6.1,48.8,18.2C68.5,35.1,74.8,57.5,74.7,74.5z"/>
<path fill="#FFFFFF" d="M49.9,74.5c-4.2,0-8.3,0-12.5,0c-0.2-10.2-3.7-19.1-11-26.3C19.2,41,10.3,37.5,0,37.3c0-4.1,0-8.2,0-12.4
	c12.8,0.2,24,4.4,33.5,13C44.3,47.6,49.5,60,49.9,74.5z"/>
<path fill="#FFFFFF" d="M0,62.1c0-6.9,5.6-12.4,12.5-12.4c6.9,0,12.4,5.6,12.4,12.4c0,6.9-5.6,12.4-12.5,12.4C5.6,74.5,0,69,0,62.1z
	"/>
</svg>
