<?xml version="1.0" encoding="utf-8"?>
<!-- Generator: Adobe Illustrator 24.2.0, SVG Export Plug-In . SVG Version: 6.00 Build 0)  -->
<svg version="1.1" id="Layer_1" xmlns="http://www.w3.org/2000/svg" xmlns:xlink="http://www.w3.org/1999/xlink" x="0px" y="0px"
	 viewBox="0 0 93.3 106" style="enable-background:new 0 0 93.3 106;" xml:space="preserve">
<style type="text/css">
	.st0{enable-background:new    ;}
	.st1{fill:#061A75;}
</style>
<g class="st0">
	<path class="st1" d="M32.5,14.5v21.7h-5.9l0-14.6l-2.3,14.6h-4.2l-2.5-14.3l0,14.3h-5.9V14.5h8.7c0.3,1.3,0.5,2.8,0.8,4.6l1,5.5
		l1.5-10.1H32.5z"/>
	<path class="st1" d="M35.2,14.5h11.2v4.3h-4.5v4.1h4.2V27h-4.2v4.8h4.9v4.3H35.2V14.5z"/>
	<path class="st1" d="M63.7,14.5v21.7h-5.9l-3.5-9.8v9.8h-5.6V14.5h5.6l3.8,9.8v-9.8H63.7z"/>
	<path class="st1" d="M81.6,14.5v14.5c0,1.6-0.1,2.8-0.2,3.5c-0.1,0.7-0.5,1.3-1.1,2s-1.5,1.2-2.5,1.6s-2.2,0.5-3.6,0.5
		c-1.5,0-2.9-0.2-4.1-0.6c-1.2-0.4-2.1-1-2.6-1.7c-0.6-0.7-0.9-1.4-1-2.2c-0.1-0.8-0.2-2.4-0.2-4.8V14.5H73v16.2
		c0,0.9,0.1,1.5,0.2,1.8c0.1,0.3,0.4,0.4,0.7,0.4c0.4,0,0.7-0.1,0.8-0.4c0.1-0.3,0.2-1,0.2-2.1v-16H81.6z"/>
</g>
<g class="st0">
	<path class="st1" d="M26.6,48.9h-6.3v-3.8c0-1.1-0.1-1.8-0.2-2c-0.1-0.3-0.4-0.4-0.9-0.4c-0.5,0-0.8,0.2-1,0.5
		c-0.1,0.3-0.2,1-0.2,2.1v10.1c0,1.1,0.1,1.7,0.2,2.1c0.1,0.3,0.5,0.5,0.9,0.5c0.5,0,0.8-0.2,0.9-0.5c0.1-0.3,0.2-1.1,0.2-2.3v-2.7
		h6.3v0.8c0,2.2-0.2,3.8-0.5,4.8s-1.1,1.8-2.4,2.5s-2.7,1.1-4.5,1.1c-1.8,0-3.4-0.3-4.6-0.9c-1.2-0.6-2-1.4-2.4-2.5
		s-0.6-2.6-0.6-4.8v-6.3c0-1.6,0.1-2.7,0.2-3.5c0.1-0.8,0.5-1.5,1.1-2.3s1.4-1.3,2.5-1.7S17.7,39,19,39c1.9,0,3.4,0.3,4.6,1
		s2,1.4,2.4,2.4c0.4,1,0.6,2.4,0.6,4.5V48.9z"/>
	<path class="st1" d="M35.2,39.4v17.3H39v4.3H28.9V39.4H35.2z"/>
	<path class="st1" d="M46.8,39.4v21.7h-6.3V39.4H46.8z"/>
	<path class="st1" d="M64.1,48.9h-6.3v-3.8c0-1.1-0.1-1.8-0.2-2s-0.4-0.4-0.9-0.4c-0.5,0-0.8,0.2-1,0.5c-0.1,0.3-0.2,1-0.2,2.1v10.1
		c0,1.1,0.1,1.7,0.2,2.1c0.1,0.3,0.5,0.5,0.9,0.5c0.5,0,0.8-0.2,0.9-0.5c0.1-0.3,0.2-1.1,0.2-2.3v-2.7h6.3v0.8
		c0,2.2-0.2,3.8-0.5,4.8s-1.1,1.8-2.4,2.5c-1.2,0.7-2.7,1.1-4.5,1.1c-1.8,0-3.4-0.3-4.6-0.9c-1.2-0.6-2-1.4-2.4-2.5
		s-0.6-2.6-0.6-4.8v-6.3c0-1.6,0.1-2.7,0.2-3.5c0.1-0.8,0.5-1.5,1.1-2.3c0.6-0.7,1.4-1.3,2.5-1.7s2.3-0.6,3.6-0.6
		c1.9,0,3.4,0.3,4.6,1c1.2,0.6,2,1.4,2.4,2.4c0.4,1,0.6,2.4,0.6,4.5V48.9z"/>
	<path class="st1" d="M81.4,39.4l-3.6,9.8l4,11.9h-6.5l-2.6-9.3v9.3h-6.3V39.4h6.3v8.4l2.8-8.4H81.4z"/>
</g>
<g class="st0">
	<path class="st1" d="M29.6,63.7v21.7h-7.8v-9.1h-2.3v9.1h-7.8V63.7h7.8v7.7h2.3v-7.7H29.6z"/>
	<path class="st1" d="M32.7,63.7h13V68h-5.2v4.1h4.9v4.1h-4.9V81h5.7v4.3H32.7V63.7z"/>
	<path class="st1" d="M48.4,63.7h5.5c3.7,0,6.2,0.1,7.4,0.3c1.3,0.2,2.4,0.7,3.2,1.6s1.2,2.2,1.2,4c0,1.7-0.3,2.8-0.9,3.4
		c-0.6,0.6-1.7,0.9-3.4,1c1.5,0.3,2.6,0.6,3.1,1.1s0.9,0.9,1,1.3c0.1,0.4,0.2,1.5,0.2,3.2v5.7h-7.2v-7.2c0-1.2-0.1-1.9-0.4-2.2
		s-0.9-0.4-2-0.4v9.8h-7.8V63.7z M56.2,67.4v4.8c0.9,0,1.5-0.1,1.8-0.3s0.5-0.7,0.5-1.7V69c0-0.7-0.2-1.1-0.5-1.4
		C57.7,67.5,57.1,67.4,56.2,67.4z"/>
	<path class="st1" d="M68.8,63.7h13V68h-5.2v4.1h4.9v4.1h-4.9V81h5.7v4.3H68.8V63.7z"/>
</g>
</svg>
