<?xml version="1.0" encoding="utf-8"?>
<!-- Generator: Adobe Illustrator 24.2.0, SVG Export Plug-In . SVG Version: 6.00 Build 0)  -->
<svg version="1.1" id="Layer_1" xmlns="http://www.w3.org/2000/svg" xmlns:xlink="http://www.w3.org/1999/xlink" x="0px" y="0px"
	 viewBox="0 0 93.3 106" style="enable-background:new 0 0 93.3 106;" xml:space="preserve">
<style type="text/css">
	.st0{enable-background:new    ;}
	.st1{fill:#061A75;}
</style>
<g class="st0">
	<path class="st1" d="M30.5,11.6v24.7h-6.7l0-16.7l-2.7,16.7h-4.7L13.6,20l0,16.3H6.9V11.6h9.9c0.3,1.5,0.6,3.2,0.9,5.2l1.1,6.3
		l1.8-11.5H30.5z"/>
	<path class="st1" d="M33.6,11.6h12.7v4.9h-5.1v4.7H46v4.7h-4.8v5.4h5.6v4.9H33.6V11.6z"/>
	<path class="st1" d="M66,11.6v24.7h-6.7l-4-11.2v11.2H49V11.6h6.4l4.3,11.1V11.6H66z"/>
	<path class="st1" d="M86.5,11.6v16.5c0,1.9-0.1,3.2-0.2,3.9c-0.1,0.8-0.6,1.5-1.3,2.3c-0.7,0.8-1.7,1.4-2.8,1.8
		c-1.2,0.4-2.5,0.6-4.1,0.6c-1.8,0-3.3-0.2-4.6-0.7c-1.3-0.5-2.3-1.1-3-1.9c-0.7-0.8-1.1-1.6-1.2-2.5C69.1,30.8,69,29,69,26.2V11.6
		h7.6v18.5c0,1.1,0.1,1.8,0.2,2.1c0.1,0.3,0.4,0.4,0.8,0.4c0.5,0,0.8-0.2,0.9-0.5c0.1-0.3,0.2-1.1,0.2-2.3V11.6H86.5z"/>
</g>
<g class="st0">
	<path class="st1" d="M23.7,51.8h-7.2v-4.3c0-1.2-0.1-2-0.2-2.3c-0.2-0.3-0.5-0.5-1-0.5c-0.6,0-1,0.2-1.1,0.6
		c-0.2,0.4-0.2,1.2-0.2,2.4v11.5c0,1.2,0.1,2,0.2,2.3c0.2,0.4,0.5,0.5,1.1,0.5c0.5,0,0.9-0.2,1-0.5c0.2-0.4,0.2-1.2,0.2-2.6v-3.1
		h7.2v1c0,2.6-0.2,4.4-0.6,5.4c-0.4,1.1-1.3,2-2.7,2.8c-1.4,0.8-3.1,1.2-5.1,1.2c-2.1,0-3.8-0.3-5.2-1c-1.4-0.7-2.3-1.6-2.7-2.8
		c-0.4-1.2-0.7-3-0.7-5.4v-7.2c0-1.8,0.1-3.1,0.2-4c0.1-0.9,0.5-1.7,1.2-2.6c0.7-0.8,1.6-1.5,2.8-1.9s2.6-0.7,4.1-0.7
		c2.1,0,3.9,0.4,5.2,1.1s2.3,1.6,2.7,2.7c0.4,1.1,0.6,2.8,0.6,5.1V51.8z"/>
	<path class="st1" d="M33.5,41.1v19.7h4.4v4.9H26.3V41.1H33.5z"/>
	<path class="st1" d="M46.8,41.1v24.7h-7.2V41.1H46.8z"/>
	<path class="st1" d="M66.5,51.8h-7.2v-4.3c0-1.2-0.1-2-0.2-2.3c-0.2-0.3-0.5-0.5-1-0.5c-0.6,0-1,0.2-1.1,0.6
		c-0.2,0.4-0.2,1.2-0.2,2.4v11.5c0,1.2,0.1,2,0.2,2.3c0.2,0.4,0.5,0.5,1.1,0.5c0.5,0,0.9-0.2,1-0.5c0.2-0.4,0.2-1.2,0.2-2.6v-3.1
		h7.2v1c0,2.6-0.2,4.4-0.6,5.4c-0.4,1.1-1.3,2-2.7,2.8c-1.4,0.8-3.1,1.2-5.1,1.2c-2.1,0-3.8-0.3-5.2-1c-1.4-0.7-2.3-1.6-2.7-2.8
		c-0.4-1.2-0.7-3-0.7-5.4v-7.2c0-1.8,0.1-3.1,0.2-4c0.1-0.9,0.5-1.7,1.2-2.6c0.7-0.8,1.6-1.5,2.8-1.9c1.2-0.5,2.6-0.7,4.1-0.7
		c2.1,0,3.9,0.4,5.2,1.1c1.4,0.7,2.3,1.6,2.7,2.7c0.4,1.1,0.6,2.8,0.6,5.1V51.8z"/>
	<path class="st1" d="M86.2,41.1l-4.1,11.1l4.5,13.5h-7.4l-2.9-10.6v10.6h-7.2V41.1h7.2v9.6l3.2-9.6H86.2z"/>
</g>
<g class="st0">
	<path class="st1" d="M27.2,69.7v24.7h-8.9V84h-2.7v10.4H6.8V69.7h8.9v8.8h2.7v-8.8H27.2z"/>
	<path class="st1" d="M30.7,69.7h14.8v4.9h-5.9v4.7h5.5V84h-5.5v5.4h6.5v4.9H30.7V69.7z"/>
	<path class="st1" d="M48.6,69.7h6.3c4.2,0,7,0.1,8.5,0.4c1.5,0.2,2.7,0.8,3.6,1.8s1.4,2.5,1.4,4.6c0,1.9-0.3,3.2-1,3.9
		c-0.7,0.7-2,1.1-3.9,1.2c1.8,0.3,2.9,0.7,3.5,1.3s1,1,1.1,1.5c0.1,0.4,0.2,1.7,0.2,3.7v6.5h-8.2v-8.2c0-1.3-0.1-2.1-0.4-2.5
		c-0.3-0.3-1-0.5-2.3-0.5v11.1h-8.9V69.7z M57.5,73.9v5.5c1,0,1.7-0.1,2.1-0.3c0.4-0.2,0.6-0.8,0.6-1.9v-1.4c0-0.8-0.2-1.3-0.6-1.5
		C59.2,74,58.5,73.9,57.5,73.9z"/>
	<path class="st1" d="M71.8,69.7h14.8v4.9h-5.9v4.7h5.5V84h-5.5v5.4h6.5v4.9H71.8V69.7z"/>
</g>
</svg>
